<svg width="1350" height="1350" viewBox="0 0 1350 1350" fill="none" xmlns="http://www.w3.org/2000/svg">
<mask id="path-1-outside-1_325_76" maskUnits="userSpaceOnUse" x="34" y="325" width="861" height="608" fill="black">
<rect fill="white" x="34" y="325" width="861" height="608"/>
<path d="M69.5 908L119.9 766.7H540.2L562.7 698.3H243.2C220.4 698.3 202.4 688.7 189.2 669.5C176 650.3 172.7 629.3 179.3 606.5L238.7 441.8C250.1 414.2 267.5 392.3 290.9 376.1C314.9 359.3 341.6 350.9 371 350.9H800.3C823.7 350.9 842.3 360.5 856.1 379.7C870.5 398.9 873.2 419.6 864.2 441.8L727.4 817.1C717.8 844.1 701.3 866 677.9 882.8C655.1 899.6 629 908 599.6 908H69.5ZM613.1 579.5L644.6 487.7H421.4L389 579.5H613.1Z"/>
</mask>
<path d="M69.5 908L119.9 766.7H540.2L562.7 698.3H243.2C220.4 698.3 202.4 688.7 189.2 669.5C176 650.3 172.7 629.3 179.3 606.5L238.7 441.8C250.1 414.2 267.5 392.3 290.9 376.1C314.9 359.3 341.6 350.9 371 350.9H800.3C823.7 350.9 842.3 360.5 856.1 379.7C870.5 398.9 873.2 419.6 864.2 441.8L727.4 817.1C717.8 844.1 701.3 866 677.9 882.8C655.1 899.6 629 908 599.6 908H69.5ZM613.1 579.5L644.6 487.7H421.4L389 579.5H613.1Z" fill="url(#paint0_linear_325_76)"/>
<path d="M69.5 908L45.9531 899.601L34.0401 933H69.5V908ZM119.9 766.7V741.7H102.274L96.3531 758.301L119.9 766.7ZM540.2 766.7V791.7H558.294L563.948 774.512L540.2 766.7ZM562.7 698.3L586.448 706.112L597.242 673.3H562.7V698.3ZM179.3 606.5L155.783 598.018L155.51 598.775L155.286 599.549L179.3 606.5ZM238.7 441.8L215.593 432.256L215.376 432.783L215.183 433.318L238.7 441.8ZM290.9 376.1L305.13 396.655L305.184 396.618L305.237 396.581L290.9 376.1ZM856.1 379.7L835.8 394.291L835.948 394.497L836.1 394.7L856.1 379.7ZM864.2 441.8L841.032 432.407L840.864 432.82L840.712 433.238L864.2 441.8ZM727.4 817.1L703.912 808.538L703.878 808.631L703.845 808.725L727.4 817.1ZM677.9 882.8L663.32 862.492L663.194 862.582L663.07 862.674L677.9 882.8ZM613.1 579.5V604.5H630.952L636.747 587.614L613.1 579.5ZM644.6 487.7L668.247 495.814L679.609 462.7H644.6V487.7ZM421.4 487.7V462.7H403.712L397.825 479.379L421.4 487.7ZM389 579.5L365.425 571.179L353.665 604.5H389V579.5ZM69.5 908L93.0469 916.399L143.447 775.099L119.9 766.7L96.3531 758.301L45.9531 899.601L69.5 908ZM119.9 766.7V791.7H540.2V766.7V741.7H119.9V766.7ZM540.2 766.7L563.948 774.512L586.448 706.112L562.7 698.3L538.952 690.488L516.452 758.888L540.2 766.7ZM562.7 698.3V673.3H243.2V698.3V723.3H562.7V698.3ZM243.2 698.3V673.3C228.846 673.3 218.459 667.931 209.801 655.337L189.2 669.5L168.599 683.663C186.341 709.469 211.954 723.3 243.2 723.3V698.3ZM189.2 669.5L209.801 655.337C200.935 642.441 198.751 629.214 203.314 613.451L179.3 606.5L155.286 599.549C146.649 629.386 151.065 658.159 168.599 683.663L189.2 669.5ZM179.3 606.5L202.817 614.982L262.217 450.282L238.7 441.8L215.183 433.318L155.783 598.018L179.3 606.5ZM238.7 441.8L261.807 451.344C271.464 427.962 285.887 409.977 305.13 396.655L290.9 376.1L276.67 355.545C249.113 374.623 228.736 400.438 215.593 432.256L238.7 441.8ZM290.9 376.1L305.237 396.581C325.018 382.733 346.71 375.9 371 375.9V350.9V325.9C336.49 325.9 304.782 335.867 276.563 355.619L290.9 376.1ZM371 350.9V375.9H800.3V350.9V325.9H371V350.9ZM800.3 350.9V375.9C815.553 375.9 826.638 381.544 835.8 394.291L856.1 379.7L876.4 365.109C857.962 339.456 831.848 325.9 800.3 325.9V350.9ZM856.1 379.7L836.1 394.7C845.253 406.903 846.73 418.35 841.032 432.407L864.2 441.8L887.369 451.193C899.67 420.85 895.748 390.897 876.1 364.7L856.1 379.7ZM864.2 441.8L840.712 433.238L703.912 808.538L727.4 817.1L750.888 825.662L887.688 450.362L864.2 441.8ZM727.4 817.1L703.845 808.725C695.961 830.899 682.606 848.646 663.32 862.492L677.9 882.8L692.48 903.108C719.994 883.354 739.64 857.301 750.955 825.475L727.4 817.1ZM677.9 882.8L663.07 862.674C644.738 876.181 623.881 883 599.6 883V908V933C634.119 933 665.462 923.019 692.73 902.926L677.9 882.8ZM599.6 908V883H69.5V908V933H599.6V908ZM613.1 579.5L636.747 587.614L668.247 495.814L644.6 487.7L620.953 479.586L589.453 571.386L613.1 579.5ZM644.6 487.7V462.7H421.4V487.7V512.7H644.6V487.7ZM421.4 487.7L397.825 479.379L365.425 571.179L389 579.5L412.575 587.82L444.975 496.021L421.4 487.7ZM389 579.5V604.5H613.1V579.5V554.5H389V579.5Z" fill="#0D244D" mask="url(#path-1-outside-1_325_76)"/>
<mask id="path-3-outside-2_325_76" maskUnits="userSpaceOnUse" x="434" y="325" width="884" height="608" fill="black">
<rect fill="white" x="434" y="325" width="884" height="608"/>
<path d="M694.7 350.9H1281.5L1231.1 490.4L770.3 908H498.5L952.1 490.4H644.3L694.7 350.9Z"/>
</mask>
<path d="M694.7 350.9H1281.5L1231.1 490.4L770.3 908H498.5L952.1 490.4H644.3L694.7 350.9Z" fill="url(#paint1_linear_325_76)"/>
<path d="M694.7 350.9V325.9H677.151L671.188 342.405L694.7 350.9ZM1281.5 350.9L1305.01 359.395L1317.11 325.9H1281.5V350.9ZM1231.1 490.4L1247.89 508.925L1252.5 504.747L1254.61 498.895L1231.1 490.4ZM770.3 908V933H779.943L787.088 926.525L770.3 908ZM498.5 908L481.567 889.608L434.434 933H498.5V908ZM952.1 490.4L969.033 508.792L1016.17 465.4H952.1V490.4ZM644.3 490.4L620.788 481.905L608.686 515.4H644.3V490.4ZM694.7 350.9V375.9H1281.5V350.9V325.9H694.7V350.9ZM1281.5 350.9L1257.99 342.405L1207.59 481.905L1231.1 490.4L1254.61 498.895L1305.01 359.395L1281.5 350.9ZM1231.1 490.4L1214.31 471.875L753.512 889.475L770.3 908L787.088 926.525L1247.89 508.925L1231.1 490.4ZM770.3 908V883H498.5V908V933H770.3V908ZM498.5 908L515.433 926.392L969.033 508.792L952.1 490.4L935.167 472.008L481.567 889.608L498.5 908ZM952.1 490.4V465.4H644.3V490.4V515.4H952.1V490.4ZM644.3 490.4L667.813 498.895L718.213 359.395L694.7 350.9L671.188 342.405L620.788 481.905L644.3 490.4Z" fill="#0D244D" mask="url(#path-3-outside-2_325_76)"/>
<defs>
<linearGradient id="paint0_linear_325_76" x1="477.515" y1="397.531" x2="477.515" y2="910.813" gradientUnits="userSpaceOnUse">
<stop stop-color="#00BFFF"/>
<stop offset="1" stop-color="#0B4284"/>
</linearGradient>
<linearGradient id="paint1_linear_325_76" x1="803" y1="346.688" x2="803" y2="615.875" gradientUnits="userSpaceOnUse">
<stop stop-color="#FF5050"/>
<stop offset="1" stop-color="#7F0303"/>
</linearGradient>
</defs>
</svg>
